<?xml version="1.0" encoding="UTF-8"?>
<svg id="Layer_1" xmlns="http://www.w3.org/2000/svg" version="1.1" viewBox="0 0 1125 310.99">
  <!-- Generator: Adobe Illustrator 29.1.0, SVG Export Plug-In . SVG Version: 2.1.0 Build 142)  -->
  <defs>
    <style>
      .st0 {
        fill: #fff;
      }
    </style>
  </defs>
  <path class="st0" d="M326.22,202.44c-7.65,4.94-17.16,7.4-28.51,7.4-10.07,0-18.79-1.97-26.14-5.92-7.36-3.94-13.01-9.72-16.96-17.33-3.95-7.6-5.92-16.63-5.92-27.1s1.98-19.48,5.92-27.03c3.95-7.55,9.58-13.33,16.89-17.32,7.3-4,15.99-6,26.06-6,11.06,0,20.49,2.35,28.29,7.03,7.8,4.69,12.79,11.77,14.96,21.25l-26.21,10.52c-1.09-6.02-2.87-10.15-5.33-12.37-2.47-2.22-6.07-3.33-10.81-3.33-6.03,0-10.64,2.27-13.85,6.81-3.21,4.54-4.81,11.35-4.81,20.44,0,18.16,6.12,27.25,18.36,27.25,4.93,0,8.71-1.16,11.33-3.48,2.61-2.32,4.37-6.05,5.26-11.18l26.95,7.26c-2.67,10.47-7.83,18.16-15.48,23.1Z"/>
  <path class="st0" d="M431.59,191.33l-2.37,15.85c-3.26,1.77-6.76,2.66-10.52,2.66-5.63,0-10.29-1.01-14-3.04-3.7-2.02-6.15-5.01-7.33-8.95-2.17,3.75-5.46,6.69-9.85,8.81-4.39,2.12-9.9,3.18-16.51,3.18-7.5,0-13.21-1.55-17.11-4.66-3.9-3.11-5.85-7.58-5.85-13.4,0-6.22,2.22-11.25,6.67-15.11,4.44-3.85,11.85-6.81,22.21-8.89l15.7-3.25v-2.81c0-2.87-.74-5.09-2.22-6.67-1.48-1.58-3.55-2.37-6.22-2.37-2.96,0-5.38.77-7.26,2.3-1.88,1.53-3.01,4.17-3.41,7.92l-24.58-5.19c1.08-7.9,4.66-14.02,10.74-18.36,6.07-4.35,14.59-6.51,25.55-6.51,24.68,0,37.02,9.82,37.02,29.47v23.69c0,3.95,1.73,5.92,5.18,5.92,1.68,0,3.06-.2,4.15-.59ZM389.75,190.07c1.92-1.53,2.89-3.68,2.89-6.44v-6.81l-8.15,2.07c-5.13,1.28-7.7,3.85-7.7,7.7,0,1.88.57,3.31,1.7,4.3,1.13.99,2.64,1.48,4.52,1.48,2.56,0,4.81-.76,6.74-2.29Z"/>
  <path class="st0" d="M472.02,180.67c0,3.16.49,5.43,1.48,6.82.98,1.38,2.67,2.07,5.03,2.07,2.17,0,4.3-.35,6.37-1.04l-1.63,17.03c-1.77,1.28-4.27,2.32-7.48,3.11-3.21.79-6.39,1.18-9.55,1.18-8.59,0-14.76-1.93-18.51-5.77-3.75-3.85-5.63-10.17-5.63-18.96v-81.31h29.92v76.86Z"/>
  <path class="st0" d="M571.69,134.31l-25.18,74.05h-36.58l-25.18-74.05h31.25l12.29,55.54,12.44-55.54h30.95Z"/>
  <path class="st0" d="M611.68,208.36h-29.92v-74.05h29.92v74.05Z"/>
  <path class="st0" d="M697.94,139.49c4.29,4.44,6.44,10.72,6.44,18.81v50.05h-29.92v-42.06c0-4.05-.64-6.91-1.93-8.59-1.29-1.68-3.16-2.52-5.63-2.52-3.16,0-5.63,1.16-7.41,3.48-1.78,2.32-2.67,5.9-2.67,10.74v38.95h-29.92v-74.05h26.95l.74,15.25c2.17-5.42,5.43-9.57,9.78-12.44,4.34-2.86,9.58-4.29,15.7-4.29,7.6,0,13.55,2.22,17.85,6.66Z"/>
  <path class="st0" d="M791.9,202.81c-7.01,4.69-15.11,7.03-24.28,7.03s-17.18-2.04-24-6.15c-6.81-4.1-12.07-9.92-15.77-17.47-3.7-7.55-5.56-16.46-5.56-26.73s1.85-19.06,5.56-26.66c3.7-7.61,8.96-13.45,15.77-17.55,6.81-4.1,14.71-6.15,23.69-6.15s17.26,1.93,23.63,5.78c6.36,3.85,11.14,9.53,14.29,17.03l-11.7,5.48c-2.17-5.73-5.32-10.02-9.48-12.89-4.14-2.86-9.43-4.29-15.84-4.29s-12.58,1.55-17.62,4.66c-5.04,3.12-8.94,7.63-11.71,13.56-2.76,5.92-4.14,12.93-4.14,21.03,0,12.24,2.93,21.85,8.81,28.8,5.87,6.96,13.89,10.45,24.07,10.45,6.61,0,12.35-1.68,17.18-5.04,4.83-3.36,8.28-8.3,10.36-14.81l11.85,4.44c-3.06,8.29-8.1,14.78-15.11,19.47Z"/>
  <path class="st0" d="M867.14,134.31l-2.37,11.55c-2.37-1.28-5.48-1.93-9.33-1.93-3.16,0-6.25.91-9.26,2.74s-5.48,4.59-7.4,8.3c-1.93,3.7-2.89,8.17-2.89,13.4v39.99h-11.85v-74.05h9.62l1.63,12.14c4.15-9.08,12.04-13.62,23.7-13.62,3.55,0,6.27.49,8.15,1.48Z"/>
  <path class="st0" d="M945.04,134.31v74.05h-10.37l-.74-11.25c-4.94,8.49-13.77,12.73-26.51,12.73-8,0-14.54-2.22-19.62-6.66-5.09-4.44-7.63-11.26-7.63-20.44v-48.43h11.85v45.32c0,7.21,1.48,12.31,4.44,15.32,2.96,3.02,7.3,4.52,13.03,4.52,6.81,0,12.46-2.07,16.95-6.22,4.5-4.15,6.74-10.37,6.74-18.66v-40.29h11.85Z"/>
  <path class="st0" d="M974.95,205.62c-5.73-2.81-9.92-6.98-12.59-12.51l9.63-6.67c1.68,4.35,4.59,7.61,8.74,9.78,4.15,2.17,9.03,3.25,14.66,3.25s10.27-1.03,13.33-3.11c3.06-2.07,4.59-4.69,4.59-7.85,0-2.86-1.43-5.15-4.29-6.88-2.87-1.73-7.9-3.23-15.11-4.52-7.11-1.28-12.74-2.84-16.88-4.67-4.15-1.83-7.16-4.15-9.04-6.96-1.87-2.81-2.81-6.29-2.81-10.44s1.19-7.75,3.56-11.11c2.37-3.35,5.78-6.04,10.22-8.07,4.44-2.02,9.58-3.04,15.4-3.04,7.9,0,14.25,1.45,19.03,4.37,4.79,2.91,8.22,7.38,10.29,13.4l-10.07,5.92c-1.58-4.74-3.98-8.15-7.19-10.22-3.21-2.08-7.23-3.11-12.07-3.11s-8.93,1.08-12.29,3.25c-3.36,2.18-5.04,4.69-5.04,7.55,0,3.26,1.45,5.78,4.37,7.55,2.91,1.77,8.12,3.31,15.63,4.6,10.27,1.68,17.53,4.19,21.77,7.55,4.24,3.36,6.36,8.1,6.36,14.22,0,4.25-1.26,8.03-3.77,11.33-2.52,3.31-6.13,5.9-10.81,7.77-4.69,1.87-10.14,2.81-16.36,2.81-7.11,0-13.53-1.41-19.26-4.22Z"/>
  <path class="st0" d="M1100.24,140.09c5.43,4.84,8.15,11.79,8.15,20.88v47.39h-11.85v-43.24c0-7.7-1.66-13.28-4.96-16.74-3.31-3.45-7.72-5.18-13.25-5.18-3.85,0-7.53.89-11.03,2.66-3.5,1.78-6.37,4.61-8.59,8.52-2.22,3.9-3.33,8.81-3.33,14.73v39.25h-11.85v-108.11h11.85v45.17c2.47-4.25,5.8-7.41,10-9.48,4.19-2.08,8.91-3.11,14.14-3.11,8.4,0,15.3,2.42,20.73,7.26Z"/>
  <path class="st0" d="M612.48,87c-1.93-8.7-13.57-8.98-16.25-.54-3.8-8.95-14.51-8.14-16.54,1.25-3.88,14.55,10.34,25.17,17.33,35.85,6.46-10.79,20.45-22.29,15.46-36.56Z"/>
  <g>
    <g>
      <ellipse class="st0" cx="138.6" cy="142.77" rx="6.3" ry="9.59" transform="translate(-22.08 25.4) rotate(-9.7)"/>
      <path class="st0" d="M117.86,133.94c-.38,0-.76-.08-1.13-.26-1.29-.62-1.83-2.17-1.2-3.46.36-.75,9.01-18.26,23.64-16.61,1.42.16,2.45,1.44,2.29,2.87-.16,1.42-1.47,2.44-2.87,2.29-10.96-1.23-18.32,13.57-18.39,13.72-.45.92-1.37,1.46-2.33,1.46Z"/>
      <ellipse class="st0" cx="177.79" cy="130.43" rx="6.3" ry="9.59" transform="translate(-19.44 31.83) rotate(-9.7)"/>
      <path class="st0" d="M164.63,109.67c-.23-.22-.41-.49-.52-.81-.4-1.12.17-2.35,1.29-2.76.65-.24,15.95-5.66,23.71,3.8.75.92.62,2.28-.3,3.03-.92.75-2.29.6-3.03-.3-5.81-7.08-18.78-2.53-18.91-2.48-.8.29-1.66.07-2.24-.48Z"/>
      <path class="st0" d="M197.08,67.68c16.77,10.81,16.69,14.54-.2,26.46-1.65-5.22-3.21-10.15-4.87-15.39-24.13,21.05-87.8-6.22-88.86,33.65,1.29,15.62,2.36,31.32,2.22,46.98.36,23.25-21.56,28.65-30.77,6.52-5.89-9.44-10.54-19.65-16.38-29.12-10.72-15.08-38.04.72-19.7-28.18-9.46-.2-31.01-7.24-17.6-17.78,13.41-10.54,33.74-13.55,57.65-45.29,24.33-20.53,79.27-5.27,109.56-7.72,31.87-1.21,32.67,11.28,8.98,29.87Z"/>
    </g>
    <path class="st0" d="M215.43,163.1c-11.23-23.2-44.19-16.26-46.12,9.3-16.67-22.66-46.28-13.25-45.75,14.55-1.22,43.57,45.89,64,72.68,89.41,11-34.69,42.75-76.4,19.19-113.26ZM201.24,173.38c-3.68,14.26-10.39,23.17-19.94,26.48-2.71.94-5.46,1.35-8.17,1.38-13.49.16-25.86-9.13-26.48-9.6-1.9-1.45-2.26-4.16-.82-6.06,1.44-1.9,4.15-2.27,6.05-.82.19.14,14.8,11.03,26.61,6.92,6.63-2.31,11.47-9.2,14.38-20.46.59-2.31,2.96-3.7,5.26-3.1,2.31.6,3.7,2.95,3.1,5.26Z"/>
  </g>
</svg>